<?xml version="1.0" encoding="iso-8859-1"?>
<!-- Generator: Adobe Illustrator 19.0.0, SVG Export Plug-In . SVG Version: 6.00 Build 0)  -->
<svg version="1.1" id="Layer_1" xmlns="http://www.w3.org/2000/svg" xmlns:xlink="http://www.w3.org/1999/xlink" x="0px" y="0px"
	 viewBox="0 0 512.001 512.001" style="enable-background:new 0 0 512.001 512.001;" xml:space="preserve">
<g>
	<g>
		<path d="M510.472,457.703l-105.558-217.23c-5.48-11.275-21.58-11.261-27.053,0c-3.708,7.631-67.15,138.19-71.002,146.117
			c-7.718-13.613-57.916-102.158-65.721-115.922c-5.753-10.148-20.412-10.148-26.164,0l-28.831,50.853
			c-1.701-4.323-49.929-126.865-51.543-130.967c-4.994-12.69-23.002-12.667-27.987,0C104.943,194.801,4.327,450.459,1.057,458.768
			c-3.876,9.845,3.389,20.546,13.993,20.546c15.645,0,459.166,0,481.896,0C508.017,479.314,515.328,467.698,510.472,457.703z
			 M228.058,308.577l26.694,47.085l-6.919,3.828l-30.415-27.564c-0.573-0.519-1.175-0.986-1.804-1.401L228.058,308.577z
			 M120.609,237.126l23.164,58.856c-4.55,0.817-5.587,2.186-19.741,12.814c-15.235-21.831-15.704-23.863-21.406-25.971
			C109.578,265.153,113.863,254.266,120.609,237.126z M37.131,449.238l48.63-123.564l8.552-6.907l13.964,20.009
			c4.879,6.992,14.569,8.517,21.362,3.42l19.997-15.014l7.159,1.888l10.274,26.105l-53.328,94.064H37.131z M276.42,449.236H148.312
			c4.414-7.784,39.438-69.563,43.864-77.369l13.896-9.634l29.532,26.763c4.763,4.317,11.746,5.13,17.378,2.016l16.604-9.186
			l21.317,37.601C285.507,430.536,288.612,424.146,276.42,449.236z M391.389,281.455l21.948,45.166l-8.516-1.846
			c-6.584-1.431-13.321,1.701-16.476,7.659l-2.231,4.214l-5.492-12.519c-1.338-3.051-3.639-5.542-6.506-7.125L391.389,281.455z
			 M309.858,449.239v-0.001c5.074-10.444,40.858-84.083,45.749-94.148l4.502-2.851l10.961,24.984
			c2.317,5.283,7.453,8.775,13.218,8.987c0.185,0.007,0.371,0.01,0.556,0.01c5.552,0,10.675-3.066,13.287-8l11.457-21.635
			c16.334,3.541,12.928,3.128,19.828,3.128l43.504,89.526H309.858z"/>
	</g>
</g>
<g>
	<g>
		<path d="M283.084,32.687c-45.941,0-83.316,37.376-83.316,83.316s37.376,83.316,83.316,83.316s83.316-37.376,83.316-83.316
			S329.025,32.687,283.084,32.687z M283.084,169.243c-29.357,0-53.24-23.883-53.24-53.24s23.883-53.24,53.24-53.24
			s53.24,23.883,53.24,53.24S312.44,169.243,283.084,169.243z"/>
	</g>
</g>
<g>
</g>
<g>
</g>
<g>
</g>
<g>
</g>
<g>
</g>
<g>
</g>
<g>
</g>
<g>
</g>
<g>
</g>
<g>
</g>
<g>
</g>
<g>
</g>
<g>
</g>
<g>
</g>
<g>
</g>
</svg>
