<?xml version="1.0" encoding="iso-8859-1"?>
<!-- Generator: Adobe Illustrator 19.0.0, SVG Export Plug-In . SVG Version: 6.00 Build 0)  -->
<svg version="1.1" id="Capa_1" xmlns="http://www.w3.org/2000/svg" xmlns:xlink="http://www.w3.org/1999/xlink" x="0px" y="0px"
	 viewBox="0 0 418.086 418.086" style="enable-background:new 0 0 418.086 418.086;" xml:space="preserve">
<path id="XMLID_87_" d="M286.56,162.074c2.733-2.732,7.166-2.732,9.899,0l1.58,1.581c2.734,2.733,2.734,7.165,0,9.899
	c-1.367,1.366-3.158,2.05-4.95,2.05s-3.583-0.684-4.95-2.05l-1.58-1.58C283.826,169.24,283.826,164.809,286.56,162.074z
	 M55.1,290.125c-5.904,3.395-13.799,5.235-21.75,5.235c-10.516,0-21.131-3.218-27.376-10.315c-4.889-5.553-6.917-13.444-5.564-21.65
	c1.557-9.438,7.229-17.802,15.174-22.371c14.24-8.188,37.724-4.541,48.325,7.503c0,0,0,0.001,0,0.001
	c4.985,5.666,7.12,13.3,5.856,20.945C68.349,278.055,63.003,285.582,55.1,290.125z M55.954,267.191
	c0.584-3.535-0.323-6.879-2.554-9.415c-3.757-4.267-11.973-7.199-19.759-7.199c-4.035,0-7.953,0.787-11.078,2.583
	c-4.276,2.46-7.472,7.255-8.339,12.515c-0.667,4.044,0.156,7.732,2.259,10.122c5.678,6.453,22.237,7.599,31.639,2.192
	C52.369,275.547,55.224,271.612,55.954,267.191z M10.644,229.654c0.187,0,0.374-0.007,0.563-0.022
	c3.854-0.307,6.729-3.679,6.423-7.533c-0.345-4.336-0.52-8.729-0.52-13.056c0-90.774,73.851-164.625,164.625-164.625
	c6.363,0,12.781,0.372,19.075,1.107c3.843,0.447,7.315-2.302,7.764-6.142c0.448-3.84-2.301-7.316-6.141-7.765
	c-6.831-0.797-13.795-1.201-20.698-1.201c-47.523,0-92.328,18.633-126.161,52.465C21.743,116.715,3.11,161.52,3.11,209.043
	c0,4.696,0.19,9.463,0.564,14.167C3.966,226.874,7.03,229.654,10.644,229.654z M299.703,75.189c-2.898-2.558-7.322-2.284-9.88,0.615
	c-2.559,2.898-2.283,7.322,0.615,9.881c35.541,31.375,55.924,76.338,55.924,123.358c0,90.774-73.851,164.625-164.625,164.625
	c-52.16,0-101.846-25.348-132.91-67.806c-2.283-3.119-6.663-3.8-9.783-1.516c-3.12,2.283-3.799,6.663-1.516,9.783
	c33.69,46.047,87.6,73.538,144.209,73.538c47.523,0,92.328-18.633,126.161-52.465c33.833-33.832,52.465-78.637,52.465-126.16
	C360.361,158.009,338.252,109.221,299.703,75.189z M418.086,368.039c0,10.825-8.804,19.629-19.625,19.629h-25.259
	c-10.822,0-19.626-8.804-19.626-19.626c0-10.825,8.804-19.629,19.626-19.629h5.628V86.986h-18.255c-1.856,0-3.637-0.737-4.95-2.051
	c-1.313-1.313-2.05-3.093-2.05-4.95l0.002-27.999c0-3.865,3.134-6.999,7-6.999h0c3.866,0,7,3.135,7,7.001l-0.002,20.998h11.254
	V51.987c0-3.866,3.134-7,7-7s7,3.134,7,7v20.999h11.255l0-20.999c0-3.866,3.134-7,7-7c3.866,0,7,3.134,7,7l0.001,27.999
	c0,1.856-0.737,3.637-2.05,4.949c-1.313,1.313-3.093,2.051-4.95,2.051h-18.256v261.428h5.631
	C409.283,348.413,418.086,357.217,418.086,368.039z M404.086,368.042c0-3.105-2.523-5.629-5.625-5.629h-25.259
	c-3.102,0-5.626,2.523-5.626,5.626c0,3.105,2.524,5.629,5.626,5.629h25.259C401.563,373.668,404.086,371.145,404.086,368.042z
	 M215.606,71.368c-2.968-8.801-2.372-18.449,1.554-25.181c7.979-13.68,27.749-14.665,42.296-8.648
	c10.279,4.25,18.07,11.69,20.841,19.903c1.901,5.633,1.361,11.259-1.561,16.27c-5.629,9.652-21.592,17.741-35.862,17.741
	c-4.042,0-7.947-0.648-11.444-2.095C224.223,86.376,218.455,79.819,215.606,71.368z M228.872,66.896
	c1.557,4.618,4.44,8.09,7.91,9.526c8.836,3.65,25.853-2.891,29.861-9.763c0.859-1.475,0.983-2.98,0.389-4.741
	c-1.43-4.238-6.624-8.836-12.925-11.441h-0.001c-4.051-1.676-8.299-2.481-12.152-2.481c-5.799,0-10.703,1.823-12.699,5.246
	C227.364,56.481,227.211,61.968,228.872,66.896z M129.427,327.965c-3.866,0-7,3.134-7,7s3.134,7,7,7h2.233c3.866,0,7-3.134,7-7
	s-3.134-7-7-7H129.427z M282.494,108.284c2.096,2.096,2.645,5.284,1.37,7.96c-11.121,23.345-24.958,45.979-41.32,67.619
	c26.943,3.754,52.804,9.989,77.027,18.581c2.793,0.991,4.66,3.634,4.66,6.598s-1.867,5.606-4.66,6.598
	c-24.213,8.588-50.066,14.822-77.014,18.578c16.342,21.612,30.167,44.234,41.309,67.623c1.274,2.676,0.726,5.864-1.37,7.96
	c-2.095,2.096-5.283,2.646-7.96,1.37c-23.389-11.14-46.013-24.967-67.625-41.309c-3.754,26.94-9.988,52.796-18.578,77.016
	c-0.991,2.794-3.633,4.66-6.597,4.66s-5.606-1.866-6.597-4.66c-8.591-24.219-14.825-50.076-18.58-77.028
	c-21.641,16.363-44.28,30.203-67.623,41.321c-2.677,1.274-5.864,0.727-7.96-1.37c-2.096-2.096-2.645-5.284-1.37-7.959
	c11.119-23.344,24.958-45.98,41.321-67.621c-26.939-3.754-52.8-9.989-77.025-18.581c-2.793-0.991-4.66-3.634-4.66-6.598
	s1.866-5.606,4.66-6.598c24.215-8.589,50.067-14.822,77.015-18.577c-16.341-21.612-30.168-44.237-41.308-67.624
	c-1.274-2.676-0.726-5.864,1.37-7.96c2.096-2.096,5.285-2.643,7.96-1.369c23.386,11.139,46.012,24.967,67.623,41.307
	c3.754-26.945,9.988-52.797,18.578-77.013c0.991-2.793,3.633-4.66,6.597-4.66s5.606,1.866,6.597,4.66
	c8.59,24.217,14.824,50.075,18.58,77.027c21.643-16.364,44.279-30.203,67.623-41.321
	C277.21,105.639,280.398,106.187,282.494,108.284z M169.373,158.301c4.164,3.405,8.288,6.908,12.367,10.503
	c4.077-3.59,8.199-7.089,12.358-10.49c-2.55-21.387-6.693-42.094-12.364-61.832C176.064,116.219,171.922,136.918,169.373,158.301z
	 M181.736,189.926c-10.542,0-19.118,8.576-19.118,19.117c0,10.542,8.576,19.118,19.118,19.118s19.118-8.576,19.118-19.118
	C200.854,198.502,192.278,189.926,181.736,189.926z M150.493,198.05c3.329-9.433,10.818-16.921,20.252-20.25
	c-21.571-18.754-44.828-35.137-68.565-48.313C115.356,153.225,131.737,176.478,150.493,198.05z M131.004,221.407
	c3.403-4.161,6.901-8.282,10.493-12.361c-3.595-4.079-7.097-8.203-10.502-12.366c-21.384,2.55-42.085,6.691-61.821,12.362
	C88.919,214.716,109.624,218.86,131.004,221.407z M157.913,251.039c4.324-3.479,8.602-7.061,12.836-10.751
	c-9.439-3.328-16.931-10.821-20.26-20.261c-18.977,21.777-35.177,44.769-48.367,68.627c19.001-10.505,37.452-22.919,55.179-37.124
	C157.496,251.356,157.7,251.192,157.913,251.039z M194.097,259.782c-4.163-3.405-8.287-6.907-12.366-10.502
	c-4.077,3.59-8.2,7.09-12.36,10.491c2.549,21.388,6.691,42.093,12.363,61.833C187.406,301.865,191.549,281.161,194.097,259.782z
	 M212.979,220.035c-3.328,9.434-10.816,16.921-20.25,20.251c21.571,18.755,44.824,35.136,68.563,48.313
	C248.116,264.862,231.733,241.605,212.979,220.035z M232.466,196.677c-3.402,4.161-6.901,8.283-10.492,12.361
	c3.595,4.079,7.098,8.204,10.503,12.367c21.383-2.551,42.086-6.693,61.821-12.363C274.556,203.369,253.846,199.225,232.466,196.677z
	 M261.346,129.431c-19.001,10.506-37.452,22.92-55.181,37.127c-0.192,0.173-0.394,0.335-0.605,0.485
	c-4.324,3.479-8.606,7.064-12.841,10.755c9.439,3.328,16.933,10.82,20.262,20.26C231.955,176.282,248.155,153.291,261.346,129.431z
	 M302.701,255.76c-3.866,0-7,3.134-7,7s3.134,7,7,7h2.233c3.866,0,7-3.134,7-7s-3.134-7-7-7H302.701z M71.479,149.108l1.58-1.58
	c2.733-2.734,2.732-7.166-0.002-9.899c-2.733-2.734-7.165-2.732-9.899,0.001l-1.58,1.58c-2.733,2.734-2.732,7.166,0.001,9.899
	c1.367,1.367,3.158,2.05,4.949,2.05S70.112,150.475,71.479,149.108z"/>
<g>
</g>
<g>
</g>
<g>
</g>
<g>
</g>
<g>
</g>
<g>
</g>
<g>
</g>
<g>
</g>
<g>
</g>
<g>
</g>
<g>
</g>
<g>
</g>
<g>
</g>
<g>
</g>
<g>
</g>
</svg>
