<?xml version="1.0" encoding="iso-8859-1"?>
<!-- Generator: Adobe Illustrator 19.0.0, SVG Export Plug-In . SVG Version: 6.00 Build 0)  -->
<svg version="1.1" id="Layer_1" xmlns="http://www.w3.org/2000/svg" xmlns:xlink="http://www.w3.org/1999/xlink" x="0px" y="0px"
	 viewBox="0 0 512.001 512.001" style="enable-background:new 0 0 512.001 512.001;" xml:space="preserve">
<g>
	<g>
		<path d="M423.456,327.208c-13.157-7.597-28.655-13.732-46.151-18.338c41.182-15.705,62.874-36.289,62.874-59.851
			c0-25.294-24.989-47.161-72.265-63.238c-6.607-2.247-13.544-4.324-20.7-6.24c18.407-13.187,25.962-31.225,25.962-47.778
			c0-27.101-20.237-58.184-75.223-65.434c3.771-5.418,5.975-11.537,5.975-18.321C303.928,17.095,258.208,0,226.606,0
			c-34.07,0-52.196,19.822-52.196,48.008c0,13.302,4.083,24.677,11.8,33c-39.262,16.162-47.546,36.498-47.546,50.754
			c0,11.936,5.817,28.134,30.749,42.576c-11.027,3.436-20.766,7.832-29.138,13.201c-22.643,14.522-35.113,36.356-35.113,61.479
			s12.471,46.957,35.113,61.479c3.745,2.402,7.79,4.592,12.073,6.609c-9.583,2.676-18.846,5.617-27.692,8.812
			c-56.95,20.572-87.05,48.043-87.05,79.442s30.1,58.869,87.048,79.443c47.842,17.284,107.896,27.197,164.766,27.197
			c55.413,0,101.762-9.85,134.035-28.485C491.274,444.359,491.472,366.479,423.456,327.208z M226.605,29.013
			c11.483,0,25.038,3.183,35.375,8.305c9.75,4.831,12.935,9.594,12.935,10.69s-3.185,5.859-12.935,10.69
			c-10.336,5.122-23.891,8.305-35.375,8.305c-20.375,0-23.183-9.13-23.183-18.996S206.23,29.013,226.605,29.013z M199.533,111.747
			c20.778-8.445,48.119-13.486,73.137-13.486c40.077,0,67.004,13.463,67.004,33.502s-26.927,33.502-67.004,33.502
			c-25.018,0-52.359-5.042-73.137-13.486c-20.68-8.404-27.369-17.115-27.369-20.016S178.855,120.152,199.533,111.747z
			 M138.662,249.019c0-31.936,36.633-50.253,100.506-50.253c39.368,0,83.465,7.003,117.96,18.733
			c36.097,12.274,49.549,25.848,49.549,31.52s-13.452,19.245-49.549,31.52c-34.496,11.73-78.592,18.733-117.96,18.733
			C175.296,299.272,138.662,280.955,138.662,249.019z M406.156,453.55c-27.021,15.602-67.388,23.848-116.735,23.848
			c-52.239,0-109.439-9.397-153.01-25.138c-47.388-17.119-64.204-35.964-64.204-46.9s16.816-29.781,64.204-46.9
			c43.57-15.739,100.77-25.136,153.01-25.136c49.347,0,89.714,8.247,116.735,23.848C450.964,383.042,450.99,427.663,406.156,453.55z
			"/>
	</g>
</g>
<g>
	<g>
		<path d="M400.629,392.873c-6.642-6.368-34.291-27.148-111.208-27.148c-9.555,0-17.3,7.747-17.3,17.3
			c0,9.554,7.746,17.302,17.3,17.302c56.594,0,82.179,12.648,87.262,17.521c6.897,6.612,17.846,6.383,24.461-0.515
			C407.756,410.437,407.526,399.486,400.629,392.873z"/>
	</g>
</g>
<g>
</g>
<g>
</g>
<g>
</g>
<g>
</g>
<g>
</g>
<g>
</g>
<g>
</g>
<g>
</g>
<g>
</g>
<g>
</g>
<g>
</g>
<g>
</g>
<g>
</g>
<g>
</g>
<g>
</g>
</svg>
