<?xml version="1.0" encoding="iso-8859-1"?>
<!-- Generator: Adobe Illustrator 19.0.0, SVG Export Plug-In . SVG Version: 6.00 Build 0)  -->
<svg version="1.1" id="Layer_1" xmlns="http://www.w3.org/2000/svg" xmlns:xlink="http://www.w3.org/1999/xlink" x="0px" y="0px"
	 viewBox="0 0 511.999 511.999" style="enable-background:new 0 0 511.999 511.999;" xml:space="preserve">
<path style="fill:#F2F2F2;" d="M374.771,186.442c8.41,4.395,14.338,12.878,15.185,22.807c3.504-1.533,7.359-2.409,11.432-2.409
	c15.725,0,28.472,12.747,28.472,28.472c0,0.891-0.058,1.767-0.131,2.643c0.759-0.073,1.533-0.117,2.322-0.117
	c15.725,0,28.472,12.747,28.472,28.472l-207.435,46.665L51.477,266.309c0-15.725,12.747-28.472,28.472-28.472
	c0.788,0,1.562,0.044,2.322,0.117c-0.073-0.876-0.131-1.752-0.131-2.643c0-15.725,12.747-28.472,28.472-28.472
	c4.074,0,7.943,0.876,11.447,2.409c1.226-14.586,13.433-26.033,28.34-26.033c5.417,0,10.454,1.533,14.762,4.161
	c3.694-11.447,14.426-19.74,27.099-19.74c7.038,0,13.477,2.57,18.441,6.804c4.702-9.228,14.28-15.565,25.362-15.565
	c7.768,0,14.805,3.125,19.945,8.162c5.14-5.037,12.163-8.162,19.945-8.162c11.068,0,20.646,6.337,25.347,15.565
	c4.979-4.234,11.403-6.804,18.456-6.804c4.658,0,9.053,1.124,12.922,3.095c6.687,3.417,11.841,9.403,14.163,16.645
	c4.307-2.628,9.359-4.161,14.762-4.161C366.346,183.215,370.828,184.383,374.771,186.442z"/>
<path style="fill:#2BA5F7;" d="M460.522,266.309h20.383c0,83.065-45.044,155.631-112.047,194.572l-114.311,28.764l-111.39-28.764
	C76.138,421.94,31.094,349.374,31.094,266.309h20.383L460.522,266.309L460.522,266.309z"/>
<g>
	<path style="fill:#E6E6E6;" d="M182.881,237.837c0.788,0,1.562,0.044,2.322,0.117c-0.073-0.876-0.131-1.752-0.131-2.643
		c0-15.725,12.747-28.472,28.472-28.472c4.074,0,7.943,0.876,11.447,2.409c1.226-14.586,13.433-26.033,28.34-26.033
		c5.417,0,10.454,1.533,14.762,4.161c3.694-11.447,14.426-19.74,27.099-19.74c0.441,0,0.873,0.039,1.31,0.06
		c-5.176-5.426-12.459-8.82-20.548-8.82c-7.782,0-14.805,3.125-19.945,8.162c-5.14-5.037-12.177-8.162-19.945-8.162
		c-11.082,0-20.66,6.337-25.362,15.565c-4.964-4.234-11.403-6.804-18.441-6.804c-12.674,0-23.405,8.293-27.099,19.74
		c-4.307-2.628-9.345-4.161-14.762-4.161c-14.908,0-27.114,11.447-28.34,26.033c-3.504-1.533-7.373-2.409-11.447-2.409
		c-15.725,0-28.472,12.747-28.472,28.472c0,0.891,0.058,1.767,0.131,2.643c-0.759-0.073-1.533-0.117-2.322-0.117
		c-15.725,0-28.472,12.747-28.472,28.472h102.931C154.409,250.584,167.156,237.837,182.881,237.837z"/>
	<path style="fill:#E6E6E6;" d="M445.118,460.881v3.125c0,26.501-21.478,47.993-47.993,47.993h-282.25
		c-26.515,0-47.993-21.493-47.993-47.993v-3.125h76.275h225.701H445.118z"/>
</g>
<path style="fill:#CCCCCC;" d="M151.566,464.006v-3.125h-8.41H66.881v3.125c0,26.501,21.493,47.993,47.993,47.993h84.685
	C173.059,511.999,151.566,490.506,151.566,464.006z"/>
<path style="fill:#2197D8;" d="M144.976,266.309H51.477H31.094c0,83.065,45.044,155.631,112.062,194.572h113.881
	C190.019,421.94,144.976,349.374,144.976,266.309z"/>
<g>
	<path style="fill:#666666;" d="M314.202,224.378c-1.451,0-2.926-0.291-4.342-0.904c-5.551-2.402-8.105-8.848-5.703-14.398
		L391.763,6.606c2.402-5.551,8.847-8.105,14.398-5.702c5.551,2.402,8.103,8.848,5.7,14.399l-87.604,202.469
		C322.469,221.906,318.436,224.378,314.202,224.378z"/>
	<path style="fill:#666666;" d="M345.091,241.475c-2.103,0-4.228-0.604-6.105-1.867c-5.018-3.377-6.349-10.181-2.97-15.2
		L459.189,41.387c3.377-5.018,10.181-6.347,15.2-2.971c5.018,3.377,6.348,10.181,2.971,15.2L354.185,236.637
		C352.07,239.778,348.613,241.475,345.091,241.475z"/>
</g>
<g>
</g>
<g>
</g>
<g>
</g>
<g>
</g>
<g>
</g>
<g>
</g>
<g>
</g>
<g>
</g>
<g>
</g>
<g>
</g>
<g>
</g>
<g>
</g>
<g>
</g>
<g>
</g>
<g>
</g>
</svg>
